<?xml version="1.0" standalone="no"?>
<!DOCTYPE svg PUBLIC "-//W3C//DTD SVG 20010904//EN"
 "http://www.w3.org/TR/2001/REC-SVG-20010904/DTD/svg10.dtd">
<svg version="1.0" xmlns="http://www.w3.org/2000/svg"
 width="564.000000pt" height="597.000000pt" viewBox="0 0 564.000000 597.000000"
 preserveAspectRatio="xMidYMid meet">

<g transform="translate(0.000000,597.000000) scale(0.100000,-0.100000)"
fill="#000000" stroke="none">
<path d="M3190 5960 c-14 -4 -47 -8 -75 -9 -224 -5 -816 -104 -1145 -192 -272
-73 -692 -215 -825 -278 -22 -11 -69 -32 -105 -46 -72 -30 -155 -68 -275 -126
-45 -22 -85 -39 -90 -39 -4 0 -61 53 -124 118 -111 114 -184 178 -243 215 -16
9 -40 25 -55 34 -46 30 -21 -1 111 -141 126 -132 206 -234 206 -262 0 -16 -22
-13 -155 21 -92 24 -295 51 -329 44 -11 -2 36 -17 105 -33 190 -44 396 -113
409 -137 15 -28 38 -1213 24 -1221 -5 -3 -36 3 -69 13 -240 77 -471 -66 -505
-314 -26 -186 68 -405 218 -509 99 -69 137 -81 263 -86 l115 -4 13 -386 c18
-557 21 -709 21 -964 l0 -228 62 61 61 60 -7 232 c-8 268 -13 416 -28 797 -6
151 -12 343 -12 426 l-1 151 -39 -25 c-61 -38 -99 -51 -157 -53 -78 -4 -137 9
-195 42 -153 87 -235 260 -206 442 25 165 117 247 277 247 80 0 157 -21 246
-65 l48 -25 -5 263 c-3 144 -9 451 -13 682 l-8 420 25 56 c29 64 52 78 272
169 41 17 89 37 105 44 29 13 150 59 250 95 134 47 184 64 235 78 30 8 67 21
82 29 15 8 37 14 50 14 12 0 45 9 73 19 27 11 82 27 120 36 196 48 275 66 325
75 30 6 93 19 140 30 47 10 123 24 170 31 47 6 92 13 100 14 8 2 42 8 75 14
239 42 903 64 1165 37 85 -8 184 -18 220 -21 81 -7 260 -38 410 -72 135 -29
422 -119 465 -145 17 -10 35 -18 42 -18 9 0 94 -44 182 -95 71 -42 172 -126
207 -174 59 -80 65 -94 71 -171 5 -57 2 -75 -16 -114 -111 -227 -657 -339
-1226 -250 -55 9 -126 23 -157 31 -71 19 -119 13 -164 -22 -28 -21 -34 -33
-34 -62 0 -20 -9 -51 -20 -69 -31 -49 -94 -60 -252 -46 -68 7 -150 19 -183 28
-33 9 -69 17 -80 19 -26 4 -138 34 -295 79 -69 20 -149 40 -178 46 -50 9 -54
8 -98 -23 l-46 -32 -186 -3 c-226 -5 -400 11 -572 50 -25 6 -70 14 -100 18
-57 8 -147 29 -235 55 -27 8 -70 20 -95 25 -166 40 -431 137 -648 236 -41 19
-78 34 -82 34 -9 0 -44 -60 -38 -64 115 -83 737 -311 998 -365 25 -5 65 -15
90 -21 25 -6 72 -15 105 -20 33 -5 103 -16 155 -25 67 -12 157 -17 305 -17
191 -1 216 1 280 22 39 12 82 33 96 46 26 25 27 25 70 9 43 -16 110 -37 219
-70 30 -9 84 -25 120 -35 122 -37 255 -70 277 -70 12 0 55 -7 95 -15 99 -21
244 -21 313 1 81 26 108 59 113 140 l4 66 62 -7 c33 -3 65 -10 71 -15 5 -4 48
-14 95 -20 47 -7 122 -18 167 -26 177 -31 467 -28 656 7 234 43 414 137 495
259 22 33 43 73 47 90 4 16 11 32 16 35 11 8 12 149 1 173 -5 9 -24 49 -42 87
-24 49 -56 91 -105 140 -88 89 -105 102 -196 157 -67 40 -111 63 -249 126 -46
22 -276 99 -314 106 -11 2 -49 11 -83 20 -157 41 -401 82 -646 108 -123 13
-772 20 -807 8z"/>
<path d="M4736 4552 c-2 -4 -1 -25 4 -46 5 -21 8 -71 6 -110 l-2 -71 -772 -3
-772 -2 35 -69 c38 -75 39 -77 56 -238 31 -296 -70 -562 -292 -769 -126 -119
-249 -173 -484 -214 -117 -20 -358 -1 -460 37 -22 8 -54 18 -72 22 -54 14
-214 92 -248 121 -11 9 -27 19 -35 22 -67 24 -275 228 -352 345 -92 139 -161
303 -186 443 -19 107 -22 105 93 108 l100 2 45 -40 c25 -22 49 -40 54 -40 5 0
17 -6 25 -13 31 -26 147 -66 223 -77 168 -24 344 30 439 135 24 27 35 30 110
36 46 4 281 8 522 8 496 1 460 -6 409 86 -15 27 -42 60 -61 72 l-34 23 -1072
0 -1072 0 -7 -37 c-3 -21 -6 -53 -6 -72 0 -28 -13 -48 -75 -118 l-75 -84 0
-131 0 -131 28 24 c15 13 32 29 37 35 30 34 99 84 105 77 6 -7 42 -105 45
-123 2 -12 45 -119 67 -165 106 -226 308 -453 533 -596 114 -72 316 -155 450
-185 127 -27 140 -29 325 -28 157 0 186 3 280 27 198 52 322 112 465 228 75
61 158 150 205 221 l29 44 138 12 c76 7 242 17 368 22 127 6 301 13 388 17
110 4 157 3 157 -5 0 -13 -60 -64 -260 -222 -85 -67 -171 -136 -190 -152 -19
-17 -59 -49 -88 -71 -52 -40 -53 -41 -46 -81 3 -23 13 -63 20 -91 8 -27 19
-75 24 -106 5 -30 17 -77 25 -105 30 -101 11 -109 -86 -36 -98 73 -416 319
-492 379 -197 157 24 -76 262 -276 140 -118 206 -169 296 -229 39 -26 76 -53
83 -59 23 -22 33 -14 28 20 -3 17 -13 73 -21 122 -9 50 -25 144 -36 210 -11
66 -22 127 -25 136 -5 17 57 86 123 136 32 25 35 25 76 12 53 -18 482 -19 540
-2 53 16 55 2 18 -91 -97 -243 -254 -452 -495 -660 -137 -118 -252 -187 -491
-296 -82 -37 -236 -81 -290 -83 -35 -1 -90 11 -185 42 -74 24 -139 47 -144 52
-6 5 -17 9 -25 9 -19 0 -288 94 -446 155 -33 13 -96 37 -140 54 -83 31 -265
105 -300 121 -11 5 -108 48 -215 96 -300 133 -673 319 -1040 520 -29 16 -34 8
-23 -37 8 -30 26 -42 203 -141 209 -116 777 -405 900 -457 41 -18 111 -50 155
-71 44 -21 114 -52 155 -69 41 -16 109 -44 150 -62 134 -56 273 -110 445 -170
155 -55 234 -80 374 -116 l95 -24 120 21 c66 12 125 24 129 27 5 3 39 14 76
24 226 63 306 102 551 275 102 72 256 219 346 329 105 128 213 328 280 518
l38 109 66 36 c198 109 326 237 438 435 55 96 108 270 132 430 12 76 14 339 4
393 l-6 35 -99 -3 -99 -3 -5 -170 c-7 -251 -21 -386 -45 -434 -4 -9 -20 -45
-36 -81 -23 -53 -98 -165 -149 -224 -50 -57 -218 -171 -300 -203 -62 -24 -120
-45 -135 -49 -91 -23 -159 -33 -233 -34 -123 0 -124 10 -12 114 48 44 113 105
143 135 l55 54 -418 -4 -419 -4 -43 55 c-59 76 -122 191 -153 282 -28 78 -55
265 -49 328 4 34 6 35 48 38 42 3 47 0 96 -50 58 -59 149 -109 233 -127 126
-26 290 -8 395 45 56 29 133 97 142 125 6 18 22 19 416 19 l409 0 0 95 0 94
-189 -6 -189 -6 -6 89 c-4 49 -8 100 -9 114 -2 23 -6 25 -59 28 -31 2 -59 -1
-62 -6z"/>
<path d="M1296 2248 c-4 -101 -12 -214 -19 -253 l-12 -70 -40 -7 c-22 -4 -62
-7 -90 -7 -65 -1 -235 -23 -235 -32 0 -3 10 -11 23 -17 12 -7 40 -24 62 -37
64 -41 102 -55 142 -54 l38 0 -45 17 c-50 20 -65 48 -28 56 13 3 59 7 103 10
44 3 168 12 275 20 107 9 203 16 213 16 27 0 20 -29 -19 -72 -37 -41 -39 -55
-10 -72 13 -9 19 -7 27 6 5 10 46 60 89 112 44 52 80 96 80 98 0 2 -57 3 -127
3 l-127 0 -18 125 c-36 250 -77 354 -64 163 4 -54 9 -144 13 -199 l6 -102 -86
-12 c-47 -6 -91 -9 -96 -5 -7 4 -11 70 -12 183 -1 190 -9 286 -25 302 -8 8
-13 -46 -18 -172z"/>
<path d="M2075 1977 c4 -67 11 -183 16 -257 5 -74 9 -192 9 -262 0 -107 2
-128 15 -128 13 0 14 34 9 268 -3 147 -8 276 -9 287 -2 11 -4 61 -4 111 -1 83
-3 92 -21 97 -20 5 -20 2 -15 -116z"/>
<path d="M2271 1960 c-43 -72 -33 -340 17 -440 21 -43 31 -54 47 -52 44 8 58
74 52 242 -5 143 -22 221 -58 258 -26 29 -36 28 -58 -8z"/>
<path d="M4020 1851 c-25 -15 -56 -31 -68 -35 -19 -7 -22 -12 -16 -41 8 -43
11 -461 3 -469 -3 -3 -293 -6 -645 -8 -351 -1 -749 -6 -884 -10 -135 -5 -299
-10 -365 -11 l-120 -2 -8 30 c-10 33 -59 138 -79 169 -43 65 -155 184 -191
203 -49 25 -50 9 -3 -37 26 -25 59 -63 74 -85 15 -22 34 -48 43 -58 9 -9 22
-30 29 -45 8 -15 20 -35 28 -44 17 -20 27 -137 14 -157 -15 -21 -82 -17 -129
8 -71 35 -177 163 -186 222 -2 13 -9 25 -14 26 -7 3 -12 -41 -15 -129 -4 -118
-7 -141 -33 -202 -43 -103 -104 -133 -163 -78 -45 42 -56 111 -42 264 6 68 18
142 26 164 31 82 15 80 -91 -12 -55 -48 -104 -93 -108 -100 -4 -8 -14 -14 -21
-14 -8 0 -20 -7 -27 -16 -8 -9 -34 -25 -58 -36 -53 -23 -95 -16 -117 17 -15
23 -14 27 12 74 34 64 119 148 207 205 37 25 73 47 80 50 7 2 -2 5 -20 5 -70
2 -208 -87 -289 -187 -42 -52 -44 -56 -44 -123 0 -67 1 -69 32 -85 88 -45 209
-2 324 117 36 39 68 68 69 67 2 -2 -7 -49 -20 -105 -20 -90 -22 -112 -13 -189
10 -91 22 -127 56 -157 48 -44 142 -39 194 9 16 16 44 56 60 89 27 52 31 71
31 138 0 43 3 80 7 82 5 3 22 -18 40 -45 26 -40 31 -57 26 -83 -23 -123 -60
-275 -97 -397 -42 -141 -73 -237 -91 -287 -11 -28 -24 -67 -28 -85 -8 -30 -29
-90 -91 -258 -30 -81 -59 -174 -55 -177 1 -1 47 30 102 70 54 40 151 108 214
152 63 43 142 97 175 120 33 23 67 44 75 48 8 4 51 29 94 56 79 49 104 56 87
23 -35 -68 -98 -208 -117 -265 l-23 -68 82 46 c45 25 120 64 167 86 47 23 96
47 110 54 42 22 257 104 303 116 47 11 253 -1 357 -21 30 -6 102 -20 160 -30
58 -11 124 -25 147 -32 23 -6 45 -9 48 -6 3 3 -6 65 -20 138 -15 73 -23 135
-20 138 10 10 261 -87 420 -162 28 -13 100 -45 160 -71 125 -54 149 -64 295
-130 58 -26 114 -49 125 -53 19 -5 19 -4 4 19 -90 139 -262 449 -391 707 -80
160 -99 205 -88 212 8 5 99 9 204 10 104 0 191 2 192 3 2 2 -20 347 -35 546
-6 73 -8 137 -5 142 8 13 3 11 -46 -20z"/>
<path d="M5095 640 c-125 -28 -128 -29 -119 -48 3 -10 9 -27 11 -39 6 -28 7
-28 119 -3 49 11 105 20 125 20 64 0 134 -63 145 -132 9 -54 -15 -72 -133 -98
-109 -25 -122 -32 -104 -54 7 -8 10 -20 6 -26 -4 -6 -1 -9 6 -8 6 2 12 -7 14
-19 3 -33 8 -36 55 -23 51 14 49 22 -3 10 -20 -4 -39 -4 -42 0 -3 5 21 14 52
20 226 45 283 80 283 170 0 55 -20 100 -69 153 -80 87 -190 111 -346 77z"/>
<path d="M4743 557 c-45 -17 -70 -46 -78 -89 -7 -35 -6 -38 17 -38 13 0 50 7
82 15 44 12 62 12 78 4 21 -11 21 -12 3 -25 -10 -7 -23 -15 -29 -17 -8 -3 -7
-12 2 -31 7 -15 10 -31 7 -36 -3 -5 9 -5 27 1 55 15 86 11 103 -15 23 -35 10
-56 -34 -56 -20 0 -42 5 -48 11 -10 10 -99 -5 -117 -21 -14 -14 73 -69 120
-76 62 -9 127 3 168 31 20 14 36 20 36 15 0 -14 -51 -45 -96 -58 -56 -16 -113
-15 -148 3 -16 9 -31 13 -33 11 -3 -3 9 -12 26 -20 39 -21 136 -22 181 -3 37
15 82 58 79 73 -1 5 1 21 5 37 16 55 -31 114 -106 132 -32 8 -32 9 -17 34 34
53 -43 123 -139 128 -32 1 -72 -3 -89 -10z m105 -79 c19 -19 14 -30 -9 -18
-11 7 -27 9 -35 6 -8 -3 -14 -2 -14 3 0 23 38 29 58 9z"/>
<path d="M5135 539 c-106 -23 -128 -29 -122 -36 3 -2 48 5 101 16 53 12 110
21 128 21 25 0 29 3 18 10 -19 12 -17 12 -125 -11z"/>
<path d="M4362 483 c-18 -3 -35 -10 -38 -17 -2 -6 32 -79 76 -161 44 -83 88
-165 97 -182 10 -18 23 -33 30 -33 7 0 50 8 95 19 46 10 100 22 120 25 l38 7
-21 41 c-20 39 -22 40 -57 34 -20 -4 -55 -10 -77 -13 l-40 -5 -69 134 c-38 73
-73 139 -79 146 -9 12 -14 12 -75 5z"/>
<path d="M4735 419 c-54 -12 -69 -18 -62 -25 6 -6 88 16 102 28 5 4 7 8 5 7
-3 -1 -23 -5 -45 -10z"/>
<path d="M4858 323 c-20 -11 -17 -12 27 -6 61 7 65 9 26 15 -16 2 -40 -1 -53
-9z"/>
<path d="M5460 295 c-36 -26 -120 -54 -167 -56 -15 0 -22 -3 -14 -6 8 -3 45 0
84 7 56 10 77 19 106 46 43 40 38 44 -9 9z"/>
<path d="M4709 109 c-20 -4 -49 -10 -64 -13 -78 -14 -134 -30 -130 -36 5 -8
220 36 244 50 20 12 2 12 -50 -1z"/>
</g>
</svg>
